# Blender v2.79 (sub 0) OBJ File: ''
# www.blender.org
mtllib lightpost_lamp.mtl
o Cube.001
v -0.112661 9.528221 0.112662
v -0.112661 9.528221 -0.112661
v 0.112662 9.528221 0.112662
v 0.112662 9.528221 -0.112661
v -0.602271 10.934227 0.602272
v -0.602271 10.934227 -0.602272
v 0.602272 10.934227 0.602272
v 0.602272 10.934227 -0.602271
v -0.188481 11.174166 0.188482
v -0.188481 11.174166 -0.188482
v 0.188482 11.174166 0.188482
v 0.188482 11.174166 -0.188481
vn 0.0000 -0.3289 -0.9444
vn 0.5016 0.8651 0.0000
vn -0.9444 -0.3289 0.0000
vn 0.9444 -0.3289 0.0000
vn -0.0000 -0.3289 0.9444
vn 0.0000 1.0000 0.0000
vn -0.0000 0.8651 0.5016
vn 0.0000 0.8651 -0.5016
vn -0.5016 0.8651 0.0000
usemtl Material
s off
f 2//1 6//1 8//1 4//1
f 8//2 12//2 11//2 7//2
f 1//3 5//3 6//3 2//3
f 4//4 8//4 7//4 3//4
f 3//5 7//5 5//5 1//5
f 9//6 11//6 12//6 10//6
f 7//7 11//7 9//7 5//7
f 6//8 10//8 12//8 8//8
f 5//9 9//9 10//9 6//9
o Cube
v -0.494917 0.919785 0.494917
v -0.494917 0.919785 -0.494917
v 0.494917 0.919785 -0.494917
v 0.494917 0.919785 0.494918
v -0.494918 -0.494917 0.494917
v -0.494917 -0.494917 -0.494918
v 0.494918 -0.494917 -0.494917
v 0.494917 -0.494917 0.494917
v -0.631791 1.041967 0.631791
v -0.631791 1.041967 -0.631791
v 0.631791 1.041967 0.631792
v 0.631792 1.041967 -0.631791
v -0.631791 1.356392 0.631791
v -0.631791 1.356392 -0.631791
v 0.631791 1.356392 0.631792
v 0.631792 1.356392 -0.631791
v -0.112661 2.001846 0.112662
v -0.112661 2.001846 -0.112661
v 0.112662 2.001846 0.112662
v 0.112662 2.001846 -0.112661
v -0.112661 9.528221 0.112662
v -0.112661 9.528221 -0.112661
v 0.112662 9.528221 0.112662
v 0.112662 9.528221 -0.112661
vn -0.0000 -0.7460 0.6659
vn 0.0000 -1.0000 -0.0000
vn -1.0000 -0.0000 -0.0000
vn 0.0000 0.0000 -1.0000
vn 1.0000 0.0000 0.0000
vn -0.0000 -0.0000 1.0000
vn -0.6659 -0.7460 0.0000
vn 0.6659 -0.7460 0.0000
vn 0.0000 -0.7460 -0.6659
vn 0.7792 0.6267 0.0000
vn -0.0000 0.6267 0.7792
vn 0.0000 0.6267 -0.7792
vn -0.7792 0.6267 0.0000
usemtl Material
s off
f 16//10 23//10 21//10 13//10
f 17//11 18//11 19//11 20//11
f 13//12 14//12 18//12 17//12
f 14//13 15//13 19//13 18//13
f 15//14 16//14 20//14 19//14
f 17//15 20//15 16//15 13//15
f 21//12 25//12 26//12 22//12
f 13//16 21//16 22//16 14//16
f 15//17 24//17 23//17 16//17
f 14//18 22//18 24//18 15//18
f 28//19 32//19 31//19 27//19
f 24//14 28//14 27//14 23//14
f 23//15 27//15 25//15 21//15
f 22//13 26//13 28//13 24//13
f 31//15 35//15 33//15 29//15
f 27//20 31//20 29//20 25//20
f 26//21 30//21 32//21 28//21
f 25//22 29//22 30//22 26//22
f 30//13 34//13 36//13 32//13
f 29//12 33//12 34//12 30//12
f 32//14 36//14 35//14 31//14
